<svg width="1051" height="356" viewBox="0 0 1051 356" fill="none" xmlns="http://www.w3.org/2000/svg">
<path d="M296.65 21.908C296.307 21.1544 295.209 21.0174 294.316 21.0174C258.415 21.0174 222.514 21.497 186.681 21.2229C166.706 21.0859 146.593 20.1267 126.892 23.6209C118.791 25.0597 110.897 27.1836 103.14 29.9242C75.7512 39.7217 51.3136 57.4669 33.466 80.3506C21.9336 95.1497 12.8725 112.621 7.51823 130.64C5.39024 135.436 4.22327 140.506 3.26224 145.576C2.02664 151.742 1.61474 157.977 0.791006 164.143C-0.925114 176.818 0.447799 189.425 2.09527 201.895C3.33088 211.007 5.80209 219.914 8.82246 228.615C12.5293 239.372 16.8539 249.854 23.3065 259.309C25.7778 263.352 27.9744 267.668 31.4752 270.957C39.7126 282.193 49.3916 292.059 60.4434 300.555C73.1427 310.352 86.8716 318.3 102.111 323.644C108.014 326.316 114.192 328.098 120.508 329.536C130.53 331.797 140.483 333.921 150.849 333.921C162.861 333.99 174.806 333.99 186.818 333.99C218.532 333.99 250.315 333.99 282.029 333.99C284.088 333.99 286.079 334.332 286.079 331.044C285.942 300.075 286.148 269.038 285.736 238.07C285.598 225.875 281.754 214.364 275.645 203.745C273.654 200.113 272.007 196.276 268.78 193.467C253.747 173.256 233.566 161.06 208.51 159.69C183.798 158.32 158.949 159.347 134.168 159.347C132.864 159.347 129.981 159.69 131.834 161.608C141.032 171.611 150.643 181.34 160.116 191.138C164.921 196.139 169.657 201.141 174.256 206.211C177.895 210.253 182.219 218.475 188.26 218.338C198.625 218.132 209.059 218.407 219.425 218.27C222.239 218.201 222.857 219.229 222.857 221.832C222.72 237.111 222.72 252.39 222.857 267.668C222.857 270.477 221.965 271.094 219.356 271.094C197.527 271.025 175.698 270.888 153.938 271.094C142.405 271.162 131.834 267.463 121.469 263.146C109.593 258.213 99.5709 250.677 90.7844 241.359C89.6861 238.892 87.5581 237.316 85.9793 235.193C74.5842 220.119 67.7884 203.333 66.7587 184.424C65.3858 158.936 72.3876 134.271 89.4115 114.676C104.719 97.1366 126.754 85.5576 149.888 82.8856C162.861 81.3783 176.11 82.7486 188.535 86.5169C194.919 88.5038 201.097 91.1073 206.931 94.3275C209.746 95.9033 212.629 97.6162 215.237 99.5346C218.121 101.658 219.768 102.07 222.445 99.192C228.829 92.5461 235.282 85.9687 241.734 79.3914C259.857 60.8241 278.047 42.2568 296.17 23.6894C296.582 23.2098 297.062 22.6617 296.993 22.0451C296.719 22.0451 296.65 21.9765 296.65 21.908ZM252.512 27.5947C252.512 27.6633 252.443 27.6632 252.443 27.7317C252.374 27.6632 252.306 27.5262 252.168 27.4577C252.306 27.4577 252.374 27.5262 252.512 27.5947ZM67.857 201.758C67.9257 201.758 67.857 201.689 67.857 201.758Z" fill="#2B6BEE"/>
<path d="M385.672 263.664C397.794 263.664 406.909 259.243 413.016 250.402C419.122 241.561 422.176 228.892 422.176 212.395C422.176 195.715 419.122 183 413.016 174.25C406.909 165.5 397.703 161.125 385.398 161.125C373.276 161.125 364.116 165.546 357.918 174.387C351.811 183.137 348.758 195.852 348.758 212.531C348.758 228.938 351.857 241.561 358.055 250.402C364.253 259.243 373.458 263.664 385.672 263.664ZM384.715 290.871C362.475 290.871 344.975 283.671 332.215 269.27C319.454 254.868 313.074 235.91 313.074 212.395C313.074 188.15 319.454 169.055 332.215 155.109C344.975 141.073 362.977 134.055 386.219 134.055C408.641 134.055 426.186 141.21 438.855 155.52C451.616 169.738 457.996 188.697 457.996 212.395C457.996 236.366 451.57 255.461 438.719 269.68C425.867 283.807 407.866 290.871 384.715 290.871ZM546.863 290.734C522.71 290.734 501.062 285.174 481.922 274.055L490.945 244.66C499.513 249.4 508.81 253.228 518.836 256.145C528.953 259.061 538.797 260.52 548.367 260.52C560.125 260.52 569.012 258.013 575.027 253C581.043 247.896 584.051 240.604 584.051 231.125C584.051 218.547 575.665 209.842 558.895 205.012C557.71 204.647 554.383 203.69 548.914 202.141C543.445 200.5 538.296 198.951 533.465 197.492C528.725 195.943 525.307 194.758 523.211 193.938C496.323 184.458 482.879 166.776 482.879 140.891C482.879 122.753 489.305 108.762 502.156 98.918C515.099 89.0742 532.234 84.1523 553.562 84.1523C577.716 84.1523 598.543 89.1198 616.043 99.0547L604.832 126.125C586.967 118.104 570.379 114.094 555.066 114.094C544.038 114.094 535.698 116.053 530.047 119.973C524.487 123.801 521.525 130.227 521.16 139.25C521.16 150.37 526.674 157.616 537.703 160.988C539.891 161.809 545.268 163.586 553.836 166.32C562.404 169.055 567.964 170.832 570.516 171.652C588.836 177.668 601.915 185.142 609.754 194.074C617.684 203.007 621.648 215.448 621.648 231.398C621.648 250.448 614.904 265.122 601.414 275.422C587.924 285.63 569.741 290.734 546.863 290.734ZM650.77 288V137.746H686.59V288H650.77ZM650.77 115.871V85.2461H686.727V115.871H650.77ZM754.129 355.266L752.078 326.281H770.262C791.316 326.281 806.036 323.456 814.422 317.805C822.807 312.245 827 301.991 827 287.043C827 280.936 826.727 274.328 826.18 267.219C823.81 270.5 821.531 273.234 819.344 275.422C817.247 277.518 814.559 279.615 811.277 281.711C808.087 283.807 804.214 285.402 799.656 286.496C795.19 287.499 790.086 288 784.344 288C764.474 288 748.113 280.845 735.262 266.535C722.501 252.225 716.121 233.768 716.121 211.164C716.121 199.133 717.898 188.195 721.453 178.352C725.008 168.417 729.839 160.259 735.945 153.879C742.052 147.499 749.07 142.622 757 139.25C765.021 135.786 773.543 134.055 782.566 134.055C802.71 134.055 817.703 141.392 827.547 156.066L830.008 137.746H862V277.336C862 284.81 861.635 291.509 860.906 297.434C860.177 303.449 858.901 309.191 857.078 314.66C855.255 320.22 852.84 325.051 849.832 329.152C846.915 333.254 843.224 336.991 838.758 340.363C834.292 343.736 829.005 346.47 822.898 348.566C816.883 350.754 809.865 352.395 801.844 353.488C793.823 354.673 784.799 355.266 774.773 355.266H754.129ZM790.086 262.98C814.786 262.98 827.273 246.438 827.547 213.352V208.156C827.365 193.299 824.266 181.815 818.25 173.703C812.234 165.591 803.439 161.49 791.863 161.398C778.738 161.398 768.803 165.91 762.059 174.934C755.314 183.866 751.941 195.943 751.941 211.164C751.941 225.839 755.314 238.143 762.059 248.078C768.895 258.013 778.237 262.98 790.086 262.98ZM897.41 288V137.746H926.258L930.223 156.75C945.535 141.62 962.534 134.055 981.219 134.055C998.719 134.055 1011.8 139.113 1020.46 149.23C1029.21 159.257 1033.58 173.84 1033.58 192.98V288H997.625V197.355C997.534 185.233 995.574 176.164 991.746 170.148C987.918 164.133 981.036 161.125 971.102 161.125C963.354 161.125 956.245 163.13 949.773 167.141C943.393 171.06 938.745 176.027 935.828 182.043C934.096 189.152 933.23 200.09 933.23 214.855V288H897.41Z" fill="white"/>
</svg>
